<svg width="63" height="54" viewBox="0 0 63 54" fill="none" xmlns="http://www.w3.org/2000/svg">
<path fill-rule="evenodd" clip-rule="evenodd" d="M22.3347 0.0400391H40.6653C53.0004 0.0400391 63 9.77199 63 21.777V31.3031C63 43.3081 53.0004 53.04 40.6653 53.04H22.3347C9.99961 53.04 0 43.3081 0 31.3031V21.777C0 9.77199 9.99961 0.0400391 22.3347 0.0400391ZM44.9721 40.1884C45.3814 40.9505 45.0166 41.3402 44.1801 41.0544C43.5519 40.8401 42.7854 40.5065 41.9068 40.1241L41.9067 40.1241C39.1639 38.9304 35.3287 37.2613 31.1975 37.2613C27.1385 37.2613 23.39 38.954 20.6815 40.1771L20.6815 40.1771C19.7501 40.5977 18.9418 40.9627 18.286 41.1843C17.0759 41.574 16.7377 41.0977 17.503 40.1018C19.5763 37.4864 24.9153 34.49 31.1441 34.49C37.3729 34.49 43.6017 37.547 44.9721 40.1884ZM21.3293 28.0989C23.2951 28.0989 24.8887 26.1021 24.8887 23.6389C24.8887 22.8883 24.7407 22.181 24.4793 21.5603C24.7144 21.5222 24.9368 21.4005 25.0979 21.2004C25.4443 20.7702 25.3764 20.1407 24.9462 19.7943C23.3782 18.5318 21.7223 17.5673 19.8289 17.1006C17.928 16.6321 15.8605 16.6831 13.4975 17.3409C12.9654 17.489 12.6542 18.0404 12.8022 18.5724C12.9503 19.1045 13.5017 19.4157 14.0338 19.2676C16.1199 18.687 17.8342 18.6688 19.3503 19.0425C19.6873 19.1256 20.0182 19.2289 20.3445 19.3519C18.8578 19.8871 17.77 21.6038 17.77 23.6389C17.77 26.1021 19.3636 28.0989 21.3293 28.0989ZM40.9592 28.0989C42.925 28.0989 44.5185 26.1021 44.5185 23.6389C44.5185 21.6038 43.4307 19.887 41.9439 19.3518C42.2702 19.2289 42.601 19.1255 42.938 19.0425C44.4541 18.6688 46.1684 18.687 48.2545 19.2676C48.7865 19.4157 49.3379 19.1045 49.486 18.5724C49.6341 18.0404 49.3228 17.489 48.7908 17.3409C46.4277 16.6831 44.3603 16.6321 42.4594 17.1006C40.5659 17.5673 38.91 18.5318 37.3421 19.7943C36.9119 20.1407 36.844 20.7702 37.1904 21.2004C37.3516 21.4006 37.5741 21.5223 37.8093 21.5603C37.5479 22.181 37.3999 22.8883 37.3999 23.6389C37.3999 26.1021 38.9935 28.0989 40.9592 28.0989Z" fill="#D9D9D9"/>
</svg>
