<svg width="64" height="54" viewBox="0 0 64 54" fill="none" xmlns="http://www.w3.org/2000/svg">
<path fill-rule="evenodd" clip-rule="evenodd" d="M23.1126 0H41.4431C53.7782 0 63.7778 9.81598 63.7778 21.9246V31.533C63.7778 43.6416 53.7782 53.4576 41.4431 53.4576H23.1126C10.7774 53.4576 0.777832 43.6416 0.777832 31.533V21.9246C0.777832 9.81598 10.7774 0 23.1126 0ZM45.7499 40.495C46.1592 41.2637 45.7944 41.6567 44.9579 41.3685C44.3297 41.1523 43.5632 40.8158 42.6846 40.4302C39.9418 39.2262 36.1066 37.5426 31.9753 37.5426C27.9164 37.5426 24.1678 39.25 21.4593 40.4836C20.528 40.9078 19.7196 41.276 19.0639 41.4995C17.8537 41.8926 17.5156 41.4122 18.2808 40.4077C20.3541 37.7697 25.6931 34.7474 31.9219 34.7474C38.1507 34.7474 44.3796 37.8309 45.7499 40.495ZM22.1072 28.3011C24.0729 28.3011 25.6665 26.2871 25.6665 23.8026C25.6665 23.0423 25.5173 22.3261 25.2538 21.6981C25.4887 21.6608 25.7113 21.5401 25.8731 21.3409C26.2213 20.9122 26.156 20.2824 25.7273 19.9342C24.1596 18.661 22.5033 17.6877 20.6087 17.2167C18.7062 16.7438 16.6373 16.7954 14.2732 17.4592C13.7414 17.6084 13.4314 18.1605 13.5807 18.6922C13.73 19.224 14.282 19.534 14.8138 19.3847C16.8988 18.7993 18.6116 18.7811 20.1261 19.1576C20.4676 19.2425 20.8027 19.3484 21.1332 19.4746C19.6409 20.01 18.5479 21.745 18.5479 23.8026C18.5479 26.2871 20.1414 28.3011 22.1072 28.3011ZM41.7371 28.3011C43.7028 28.3011 45.2964 26.2871 45.2964 23.8026C45.2964 21.7449 44.2032 20.0099 42.7109 19.4746C43.0413 19.3484 43.3764 19.2425 43.7178 19.1576C45.2323 18.7811 46.9451 18.7993 49.0302 19.3847C49.5619 19.534 50.114 19.224 50.2632 18.6922C50.4125 18.1605 50.1025 17.6084 49.5708 17.4592C47.2067 16.7954 45.1377 16.7438 43.2353 17.2167C41.3406 17.6877 39.6843 18.661 38.1166 19.9342C37.6879 20.2824 37.6227 20.9122 37.9708 21.3409C38.1327 21.5402 38.3554 21.6609 38.5904 21.6981C38.327 22.3261 38.1777 23.0423 38.1777 23.8026C38.1777 26.2871 39.7713 28.3011 41.7371 28.3011Z" fill="#D9D9D9"/>
</svg>
