<svg width="63" height="54" viewBox="0 0 63 54" fill="none" xmlns="http://www.w3.org/2000/svg">
<path fill-rule="evenodd" clip-rule="evenodd" d="M22.3347 0.52002H40.6653C53.0004 0.52002 63 10.252 63 22.2569V31.7831C63 43.7881 53.0004 53.52 40.6653 53.52H22.3347C9.99961 53.52 0 43.7881 0 31.7831V22.2569C0 10.252 9.99961 0.52002 22.3347 0.52002ZM45.738 35.2096C46.0228 34.2743 45.4088 33.365 44.4656 33.6854C40.382 35.0738 36.0931 35.8051 31.7677 35.8505C27.4394 35.8057 23.1475 35.0745 19.0609 33.6854C18.1266 33.365 17.5749 34.257 17.7885 35.2096C18.4203 37.8769 25.3075 42.207 31.7677 42.207C38.2279 42.207 44.7592 38.3965 45.738 35.2096ZM16.7435 17.197C16.7481 16.6447 17.1995 16.2007 17.7517 16.2052C19.4442 16.2192 21.1125 16.6049 22.6325 17.3347C24.1176 18.0477 25.4247 19.0718 26.4596 20.3352C26.6641 20.5124 26.8219 20.7409 26.9134 21.0013C27.0255 21.32 27.031 21.6662 26.9289 21.9884C26.8269 22.3103 26.6243 22.5876 26.3556 22.7835C26.0873 22.9791 25.7655 23.0849 25.4365 23.0894L25.2101 23.0926L25.0043 22.9978C23.878 22.4789 22.338 22.2993 20.8096 22.4473C19.2718 22.5961 17.9166 23.0595 17.1287 23.657C16.6887 23.9908 16.0614 23.9046 15.7276 23.4646C15.3939 23.0245 15.4801 22.3972 15.9201 22.0635C17.1076 21.1629 18.8668 20.626 20.6169 20.4566C21.7058 20.3512 22.8566 20.3815 23.9414 20.5884C23.294 20.0088 22.5623 19.5195 21.7669 19.1376C20.5134 18.5358 19.1352 18.2167 17.7352 18.2052C17.183 18.2006 16.739 17.7492 16.7435 17.197ZM44.9367 18.2052C45.489 18.2004 45.9328 17.7488 45.928 17.1966C45.9233 16.6443 45.4717 16.2005 44.9194 16.2052C43.2272 16.2199 41.5592 16.6058 40.0395 17.3355C38.5545 18.0485 37.2474 19.0722 36.2121 20.3351C36.006 20.5136 35.8474 20.7443 35.7562 21.0071C35.6447 21.3282 35.6413 21.6766 35.7465 21.9999C35.8515 22.3229 36.058 22.5998 36.3304 22.7938C36.6025 22.9875 36.9276 23.0898 37.2585 23.0895L37.4774 23.0893L37.6761 22.9978C38.8025 22.4789 40.3425 22.2993 41.8708 22.4473C43.4086 22.5961 44.7638 23.0595 45.5518 23.657C45.9918 23.9908 46.6191 23.9046 46.9528 23.4646C47.2866 23.0245 47.2004 22.3972 46.7603 22.0635C45.5728 21.1629 43.8136 20.626 42.0635 20.4566C40.9713 20.3508 39.8166 20.3817 38.7288 20.5903C39.3768 20.0103 40.1091 19.5207 40.9051 19.1385C42.1586 18.5367 43.5368 18.2173 44.9367 18.2052Z" fill="#D9D9D9"/>
</svg>
