<svg width="62" height="54" viewBox="0 0 62 54" fill="none" xmlns="http://www.w3.org/2000/svg">
<path fill-rule="evenodd" clip-rule="evenodd" d="M22.4035 0H40.1521C52.0957 0 61.7778 9.91558 61.7778 22.1471V31.8529C61.7778 44.0844 52.0957 54 40.1521 54H22.4035C10.46 54 0.777832 44.0844 0.777832 31.8529V22.1471C0.777832 9.91558 10.46 0 22.4035 0ZM45.0637 35.3441C45.3394 34.3912 44.7449 33.4647 43.8316 33.7912C39.8776 35.2058 35.7249 35.9508 31.5368 35.9971C27.3459 35.9515 23.1902 35.2064 19.2334 33.7912C18.3288 33.4647 17.7946 34.3735 18.0014 35.3441C18.6131 38.0618 25.2817 42.4735 31.5368 42.4735C37.7919 42.4735 44.1159 38.5912 45.0637 35.3441ZM16.9582 16.9913C16.963 16.4391 17.4146 15.9953 17.9669 16C19.6185 16.0144 21.2447 16.4105 22.7239 17.1578C24.169 17.888 25.4366 18.9344 26.4377 20.2205C26.6375 20.4027 26.7867 20.6332 26.8721 20.8888C26.9765 21.2012 26.9815 21.5387 26.8865 21.8541C26.7915 22.1696 26.6001 22.4504 26.3352 22.6536C26.07 22.8571 25.7455 22.9715 25.4082 22.9764L25.171 22.9798L24.9575 22.8763C23.8803 22.3542 22.4042 22.172 20.9351 22.3217C19.4572 22.4722 18.157 22.9405 17.4016 23.5434C16.9699 23.8879 16.3407 23.8172 15.9962 23.3855C15.6517 22.9539 15.7224 22.3247 16.1541 21.9802C17.3113 21.0566 19.0267 20.5057 20.7324 20.332C21.7929 20.224 22.915 20.2549 23.9736 20.4672C23.3343 19.8549 22.6097 19.3409 21.822 18.9429C20.6158 18.3336 19.2922 18.0116 17.9495 18C17.3973 17.9952 16.9535 17.5436 16.9582 16.9913ZM44.2887 18C44.841 17.9949 45.2846 17.5432 45.2796 16.9909C45.2746 16.4386 44.8228 15.995 44.2705 16C42.6192 16.0151 40.9934 16.4115 39.5144 17.1587C38.0694 17.8888 36.8018 18.9348 35.8003 20.2204C35.599 20.404 35.449 20.6366 35.3639 20.8945C35.2601 21.2092 35.257 21.5488 35.3549 21.8653C35.4528 22.1821 35.6481 22.4629 35.9169 22.6644C36.1861 22.8661 36.5142 22.9767 36.8536 22.9765L37.0828 22.9763L37.289 22.8763C38.3662 22.3542 39.8422 22.172 41.3114 22.3217C42.7892 22.4722 44.0894 22.9405 44.8448 23.5434C45.2765 23.8879 45.9057 23.8172 46.2502 23.3855C46.5947 22.9539 46.524 22.3247 46.0924 21.9802C44.9351 21.0566 43.2197 20.5057 41.514 20.332C40.4503 20.2236 39.3244 20.2551 38.263 20.4691C38.9028 19.8565 39.628 19.3421 40.4163 18.9438C41.6224 18.3344 42.946 18.0122 44.2887 18Z" fill="#D9D9D9"/>
</svg>
