<svg width="62" height="54" viewBox="0 0 62 54" fill="none" xmlns="http://www.w3.org/2000/svg">
<path fill-rule="evenodd" clip-rule="evenodd" d="M21.7772 0.450836H39.6502C51.6774 0.450836 61.4275 10.2008 61.4275 22.2281V31.7719C61.4275 43.7991 51.6774 53.5491 39.6502 53.5491H21.7772C9.75 53.5491 0 43.7991 0 31.7719V22.2281C0 10.2008 9.75 0.450836 21.7772 0.450836ZM24.354 18.3238C24.354 21.4528 22.8003 23.9893 20.8836 23.9893C18.9669 23.9893 17.4131 21.4528 17.4131 18.3238C17.4131 15.1948 18.9669 12.6582 20.8836 12.6582C22.8003 12.6582 24.354 15.1948 24.354 18.3238ZM40.5437 23.9893C42.4604 23.9893 44.0142 21.4528 44.0142 18.3238C44.0142 15.1948 42.4604 12.6582 40.5437 12.6582C38.627 12.6582 37.0732 15.1948 37.0732 18.3238C37.0732 21.4528 38.627 23.9893 40.5437 23.9893ZM44.3264 35.6068C44.604 34.6784 44.0053 33.7674 43.0857 34.0884C39.104 35.4794 34.9222 36.212 30.7047 36.2575C26.4844 36.2127 22.2997 35.48 18.3151 34.0884C17.4041 33.7674 16.8662 34.6611 17.0744 35.6068C17.6904 38.279 24.4058 42.6171 30.7047 42.6171C37.0037 42.6171 43.3807 38.7996 44.3264 35.6068Z" fill="#D9D9D9"/>
</svg>
