<svg width="63" height="54" viewBox="0 0 63 54" fill="none" xmlns="http://www.w3.org/2000/svg">
<path fill-rule="evenodd" clip-rule="evenodd" d="M22.3347 0.52002H40.6653C53.0004 0.52002 63 10.252 63 22.2569V31.7831C63 43.7881 53.0004 53.52 40.6653 53.52H22.3347C9.99961 53.52 0 43.7881 0 31.7831V22.2569C0 10.252 9.99961 0.52002 22.3347 0.52002ZM24.9775 18.3599C24.9775 21.4831 23.3839 24.0149 21.4182 24.0149C19.4524 24.0149 17.8589 21.4831 17.8589 18.3599C17.8589 15.2367 19.4524 12.7048 21.4182 12.7048C23.3839 12.7048 24.9775 15.2367 24.9775 18.3599ZM41.5816 24.0149C43.5474 24.0149 45.141 21.4831 45.141 18.3599C45.141 15.2367 43.5474 12.7048 41.5816 12.7048C39.6159 12.7048 38.0223 15.2367 38.0223 18.3599C38.0223 21.4831 39.6159 24.0149 41.5816 24.0149ZM45.4612 35.6109C45.7459 34.6842 45.132 33.7749 44.1887 34.0953C40.1051 35.4838 35.8162 36.215 31.4909 36.2604C27.1625 36.2156 22.8706 35.4844 18.7841 34.0953C17.8498 33.7749 17.2981 34.6669 17.5116 35.6109C18.1434 38.2782 25.0307 42.6082 31.4909 42.6082C37.951 42.6082 44.4913 38.7978 45.4612 35.6109Z" fill="#D9D9D9"/>
</svg>
