<svg width="71" height="57" viewBox="0 0 71 57" fill="none" xmlns="http://www.w3.org/2000/svg">
<path d="M15.1847 34.2876C12.6399 33.0541 10.2345 36.1114 9.61577 37.3537C8.98828 36.1114 6.5829 33.0541 4.0468 34.2876C1.78086 35.3801 0.124984 39.1511 3.84635 42.966C5.48432 44.5625 7.45595 45.7669 9.61577 46.4903C11.7729 45.7665 13.7416 44.5621 15.3765 42.966C19.0804 39.1511 17.442 35.3801 15.1847 34.2876Z" fill="#D9D9D9" stroke="#D9D9D9" stroke-width="2" stroke-miterlimit="10" stroke-linecap="round"/>
<path d="M63.4276 2.26187C61.2227 1.1958 59.1311 3.85659 58.582 4.90505C58.0417 3.82135 55.9675 1.16055 53.7364 2.26187C51.7668 3.22223 50.3201 6.49976 53.5621 9.82135C54.9901 11.2046 56.7049 12.249 58.582 12.8786C60.461 12.2531 62.1767 11.2082 63.6019 9.82135C66.844 6.49976 65.406 3.22223 63.4276 2.26187Z" fill="#D9D9D9" stroke="#D9D9D9" stroke-width="2" stroke-miterlimit="10" stroke-linecap="round"/>
<path d="M67.5747 46.2101C65.7097 45.329 63.9492 47.5493 63.4873 48.4568C63.0341 47.5757 61.265 45.3026 59.4086 46.2101C57.744 47.0118 56.5326 49.7343 59.2605 52.5713C60.4616 53.7373 61.906 54.6164 63.4873 55.144C65.0687 54.6164 66.513 53.7373 67.7142 52.5713C70.442 49.796 69.2306 47.0118 67.5747 46.2101Z" fill="#D9D9D9" stroke="#D9D9D9" stroke-width="2" stroke-miterlimit="10" stroke-linecap="round"/>
</svg>
