<svg width="63" height="54" viewBox="0 0 63 54" fill="none" xmlns="http://www.w3.org/2000/svg">
<path fill-rule="evenodd" clip-rule="evenodd" d="M22.3347 0.0400391H40.6653C53.0004 0.0400391 63 9.77199 63 21.777V31.3031C63 43.3081 53.0004 53.04 40.6653 53.04H22.3347C9.9996 53.04 0 43.3081 0 31.3031V21.777C0 9.77199 9.9996 0.0400391 22.3347 0.0400391ZM25.5963 22.1614C26.1924 22.9403 26.444 23.269 26.444 21.8679C26.444 18.7416 24.5665 16.6718 21.6834 16.6718C19.2275 16.6718 16.9229 18.8369 16.9229 21.9545C16.9229 23.2539 17.0357 23.0835 17.465 22.4353C18.0656 21.5282 19.2859 19.6855 21.6834 19.6249C23.6187 19.5773 24.866 21.2071 25.5963 22.1614ZM44.9886 21.8679C44.9886 23.269 44.7369 22.9403 44.1408 22.1614C43.4105 21.2071 42.1632 19.5773 40.228 19.6249C37.8304 19.6855 36.6102 21.5282 36.0095 22.4353C35.5802 23.0835 35.4674 23.2539 35.4674 21.9545C35.4674 18.8369 37.772 16.6718 40.228 16.6718C43.111 16.6718 44.9886 18.7416 44.9886 21.8679ZM44.9176 34.5204C45.2023 33.5937 44.5883 32.6844 43.6451 33.0048C39.5617 34.394 35.2727 35.1253 30.9472 35.1699C26.6218 35.1253 22.3328 34.394 18.2493 33.0048C17.3061 32.6844 16.7544 33.5764 16.9769 34.5204C17.5998 37.1877 24.487 41.5178 30.9472 41.5178C37.4074 41.5178 43.9387 37.7073 44.9176 34.5204Z" fill="#D9D9D9"/>
</svg>
