<svg width="62" height="54" viewBox="0 0 62 54" fill="none" xmlns="http://www.w3.org/2000/svg">
<path fill-rule="evenodd" clip-rule="evenodd" d="M21.9497 0.0792847H39.9029C51.9841 0.0792847 61.7779 9.9803 61.7779 22.1938V31.8855C61.7779 44.099 51.9841 54 39.9029 54H21.9497C9.86848 54 0.074707 44.099 0.074707 31.8855V22.1938C0.074707 9.9803 9.86848 0.0792847 21.9497 0.0792847ZM25.1443 22.5849C25.7282 23.3773 25.9746 23.7118 25.9746 22.2863C25.9746 19.1057 24.1357 17 21.312 17C18.9066 17 16.6494 19.2026 16.6494 22.3745C16.6494 23.6964 16.7599 23.5231 17.1804 22.8636C17.7687 21.9407 18.9638 20.0661 21.312 20.0044C23.2074 19.9559 24.4291 21.6141 25.1443 22.5849ZM44.1372 22.2863C44.1372 23.7118 43.8908 23.3773 43.3069 22.5849C42.5917 21.6141 41.37 19.9559 39.4746 20.0044C37.1264 20.0661 35.9313 21.9407 35.343 22.8636C34.9225 23.5231 34.812 23.6964 34.812 22.3744C34.812 19.2026 37.0692 17 39.4746 17C42.2983 17 44.1372 19.1057 44.1372 22.2863ZM44.0675 35.1586C44.3464 34.2159 43.745 33.2907 42.8212 33.6167C38.8218 35.03 34.6211 35.774 30.3847 35.8194C26.1483 35.774 21.9476 35.03 17.9482 33.6167C17.0244 33.2907 16.4841 34.1982 16.7019 35.1586C17.312 37.8722 24.0575 42.2775 30.3847 42.2775C36.7119 42.2775 43.1088 38.4009 44.0675 35.1586Z" fill="#D9D9D9"/>
</svg>
