<svg width="63" height="54" viewBox="0 0 63 54" fill="none" xmlns="http://www.w3.org/2000/svg">
<path fill-rule="evenodd" clip-rule="evenodd" d="M22.3347 0.0400391H40.6653C53.0004 0.0400391 63 9.77199 63 21.777V31.3031C63 43.3081 53.0004 53.04 40.6653 53.04H22.3347C9.99961 53.04 0 43.3081 0 31.3031V21.777C0 9.77199 9.99961 0.0400391 22.3347 0.0400391ZM41.8841 39.9113C42.0977 40.8379 41.635 41.7472 40.932 41.4268C40.7244 41.3318 40.4977 41.2249 40.2535 41.1096C38.2476 40.1627 35.0547 38.6555 31.4375 38.6555C27.8382 38.6555 24.638 40.1274 22.6009 41.0644C22.3414 41.1837 22.1009 41.2943 21.8808 41.3921C21.1778 41.7126 20.7596 40.8206 20.9286 39.8766C21.4003 37.2006 26.5791 32.9485 31.4286 32.9485C36.2782 32.9485 41.1812 36.7243 41.8841 39.9113ZM21.8897 25.4922C23.8555 25.4922 25.449 23.348 25.449 20.7031C25.449 18.0582 23.8555 15.9141 21.8897 15.9141C19.924 15.9141 18.3304 18.0582 18.3304 20.7031C18.3304 23.348 19.924 25.4922 21.8897 25.4922ZM24.4823 10.5696C24.7495 10.0863 24.5744 9.47787 24.091 9.21064C23.6077 8.94341 22.9992 9.11859 22.732 9.60192C20.9396 12.8437 17.872 14.3326 13.6122 14.4555C13.0602 14.4714 12.6255 14.9318 12.6415 15.4839C12.6574 16.036 13.1178 16.4706 13.6699 16.4546C18.4152 16.3177 22.2527 14.6023 24.4823 10.5696ZM40.9766 25.4922C42.9424 25.4922 44.5359 23.348 44.5359 20.7031C44.5359 18.0582 42.9424 15.9141 40.9766 15.9141C39.0109 15.9141 37.4173 18.0582 37.4173 20.7031C37.4173 23.348 39.0109 25.4922 40.9766 25.4922ZM40.1346 9.60192C39.8674 9.11859 39.2589 8.94341 38.7756 9.21064C38.2923 9.47787 38.1171 10.0863 38.3843 10.5696C40.614 14.6023 44.4515 16.3177 49.1967 16.4546C49.7488 16.4706 50.2092 16.036 50.2251 15.4839C50.2411 14.9318 49.8065 14.4714 49.2544 14.4555C44.9946 14.3326 41.927 12.8437 40.1346 9.60192Z" fill="#D9D9D9"/>
</svg>
