<svg width="62" height="53" viewBox="0 0 62 53" fill="none" xmlns="http://www.w3.org/2000/svg">
<path fill-rule="evenodd" clip-rule="evenodd" d="M22.4035 0H40.1521C52.0957 0 61.7778 9.73195 61.7778 21.7369V31.2631C61.7778 43.268 52.0957 53 40.1521 53H22.4035C10.46 53 0.777832 43.268 0.777832 31.2631V21.7369C0.777832 9.73195 10.46 0 22.4035 0ZM41.3324 39.8712C41.5392 40.7979 41.0911 41.7072 40.4105 41.3867C40.2094 41.2918 39.99 41.1848 39.7535 41.0695C37.8113 40.1227 34.7197 38.6155 31.2174 38.6155C27.7324 38.6155 24.6338 40.0874 22.6613 41.0243C22.4101 41.1437 22.1772 41.2543 21.964 41.3521C21.2834 41.6725 20.8784 40.7805 21.0421 39.8366C21.4988 37.1606 26.5132 32.9085 31.2088 32.9085C35.9044 32.9085 40.6517 36.6843 41.3324 39.8712ZM21.9727 25.4521C23.876 25.4521 25.419 23.308 25.419 20.6631C25.419 18.0182 23.876 15.874 21.9727 15.874C20.0693 15.874 18.5264 18.0182 18.5264 20.6631C18.5264 23.308 20.0693 25.4521 21.9727 25.4521ZM24.5172 10.5177C24.7778 10.0308 24.5944 9.42479 24.1075 9.16413C23.6206 8.90347 23.0146 9.08688 22.7539 9.57378C21.0184 12.8156 18.0584 14.2932 13.9561 14.4155C13.404 14.4319 12.9698 14.8928 12.9863 15.4448C13.0027 15.9968 13.4636 16.431 14.0156 16.4146C18.6325 16.277 22.3583 14.5504 24.5172 10.5177ZM40.4537 25.4521C42.357 25.4521 43.9 23.308 43.9 20.6631C43.9 18.0182 42.357 15.874 40.4537 15.874C38.5503 15.874 37.0073 18.0182 37.0073 20.6631C37.0073 23.308 38.5503 25.4521 40.4537 25.4521ZM39.6726 9.57378C39.412 9.08688 38.806 8.90347 38.319 9.16413C37.8321 9.42479 37.6487 10.0308 37.9094 10.5177C40.0683 14.5504 43.7941 16.277 48.4109 16.4146C48.963 16.431 49.4238 15.9968 49.4403 15.4448C49.4567 14.8928 49.0226 14.4319 48.4705 14.4155C44.3682 14.2932 41.4081 12.8156 39.6726 9.57378Z" fill="#D9D9D9"/>
</svg>
