<svg width="64" height="54" viewBox="0 0 64 54" fill="none" xmlns="http://www.w3.org/2000/svg">
<path fill-rule="evenodd" clip-rule="evenodd" d="M22.762 0.5H41.0925C53.4276 0.5 63.4272 10.232 63.4272 22.2369V31.7631C63.4272 43.768 53.4276 53.5 41.0925 53.5H22.762C10.4269 53.5 0.427246 43.768 0.427246 31.7631V22.2369C0.427246 10.232 10.4269 0.5 22.762 0.5ZM25.4048 17.7077C25.4048 20.8309 23.8112 23.3627 21.8455 23.3627C19.8797 23.3627 18.2861 20.8309 18.2861 17.7077C18.2861 14.5845 19.8797 12.0526 21.8455 12.0526C23.8112 12.0526 25.4048 14.5845 25.4048 17.7077ZM42.009 23.3627C43.9748 23.3627 45.5684 20.8309 45.5684 17.7077C45.5684 14.5845 43.9748 12.0526 42.009 12.0526C40.0433 12.0526 38.4497 14.5845 38.4497 17.7077C38.4497 20.8309 40.0433 23.3627 42.009 23.3627ZM45.8889 40.3713C46.1737 41.2979 45.5597 42.2072 44.6165 41.8868C44.0378 41.6913 43.3535 41.412 42.5793 41.096C39.8891 39.9979 36.1149 38.4574 31.9275 38.4574C27.7712 38.4574 24.006 40.0009 21.3126 41.105C20.5116 41.4334 19.8054 41.7229 19.2118 41.9214C18.2775 42.2418 17.7258 41.3498 17.9394 40.4059C18.5711 37.6953 25.4584 33.4085 31.9186 33.4085C38.3788 33.4085 44.919 37.1843 45.8889 40.3713Z" fill="#D9D9D9"/>
</svg>
