<svg width="63" height="54" viewBox="0 0 63 54" fill="none" xmlns="http://www.w3.org/2000/svg">
<path fill-rule="evenodd" clip-rule="evenodd" d="M22.3347 0.0400391H40.6653C53.0004 0.0400391 63 9.77199 63 21.777V31.3031C63 43.3081 53.0004 53.04 40.6653 53.04H22.3347C9.99961 53.04 0 43.3081 0 31.3031V21.777C0 9.77199 9.99961 0.0400391 22.3347 0.0400391ZM24.9775 17.2477C24.9775 20.3709 23.384 22.9028 21.4182 22.9028C19.4524 22.9028 17.8589 20.3709 17.8589 17.2477C17.8589 14.1245 19.4524 11.5927 21.4182 11.5927C23.384 11.5927 24.9775 14.1245 24.9775 17.2477ZM41.5818 22.9028C43.5475 22.9028 45.1411 20.3709 45.1411 17.2477C45.1411 14.1245 43.5475 11.5927 41.5818 11.5927C39.616 11.5927 38.0225 14.1245 38.0225 17.2477C38.0225 20.3709 39.616 22.9028 41.5818 22.9028ZM45.4617 39.9113C45.7464 40.8379 45.1324 41.7472 44.1892 41.4268C43.6106 41.2314 42.9262 40.952 42.1521 40.636C39.4619 39.538 35.6876 37.9974 31.5002 37.9974C27.3439 37.9974 23.5788 39.5409 20.8853 40.6451C20.0843 40.9734 19.3781 41.2629 18.7846 41.4615C17.8502 41.7819 17.2985 40.8899 17.5121 39.9459C18.1439 37.2353 25.0312 32.9485 31.4913 32.9485C37.9515 32.9485 44.4918 36.7244 45.4617 39.9113Z" fill="#D9D9D9"/>
</svg>
