<svg xmlns="http://www.w3.org/2000/svg" viewBox="0 0 28.18 41.18" width="35" height="25" fill="#DF5612"><g id="Layer_2" data-name="Layer 2"><g id="Layer_1-2" data-name="Layer 1"><path d="M8.26,0h7a49.43,49.43,0,0,0-4.54,10.46A36,36,0,0,0,9.22,20.59a35.64,35.64,0,0,0,1.46,10,51.46,51.46,0,0,0,4.54,10.56h-7a38.14,38.14,0,0,1-6.2-10A28.35,28.35,0,0,1,2.06,10,37.32,37.32,0,0,1,8.26,0Z"/><path d="M17.9,37.06l4.71-9.94.48,3.36a5.11,5.11,0,0,1-3.65-1.3,4.42,4.42,0,0,1-1.39-3.4,4.43,4.43,0,0,1,1.39-3.41,5.11,5.11,0,0,1,3.65-1.3,5.13,5.13,0,0,1,3.69,1.32,4.52,4.52,0,0,1,1.4,3.43,7.1,7.1,0,0,1-.63,2.67,24,24,0,0,1-2.21,3.91l-3,4.66Zm5.19-23.19a5,5,0,0,1-3.65-1.39A4.68,4.68,0,0,1,18,9,4.59,4.59,0,0,1,19.44,5.5a5.06,5.06,0,0,1,3.65-1.37A5,5,0,0,1,26.76,5.5,4.64,4.64,0,0,1,28.18,9a4.73,4.73,0,0,1-1.42,3.5A5,5,0,0,1,23.09,13.87Z"/></g></g></svg>